<?xml version="1.0" standalone="no"?>
<!DOCTYPE svg PUBLIC "-//W3C//DTD SVG 20010904//EN"
 "http://www.w3.org/TR/2001/REC-SVG-20010904/DTD/svg10.dtd">
<svg version="1.0" xmlns="http://www.w3.org/2000/svg"
 width="110.000000pt" height="110.000000pt" viewBox="0 0 110.000000 110.000000"
 preserveAspectRatio="xMidYMid meet">
<metadata>
Created by potrace 1.11, written by Peter Selinger 2001-2013
</metadata>
<g transform="translate(0.000000,110.000000) scale(0.100000,-0.100000)"
fill="#000000" stroke="none">
<path d="M496 1074 c-9 -8 -17 -25 -17 -37 -6 -106 12 -290 33 -329 5 -11 5
-18 -1 -18 -5 0 -12 15 -16 33 -22 106 -146 287 -208 302 -45 12 -95 -39 -88
-90 4 -34 61 -137 102 -187 21 -26 39 -48 39 -50 0 -2 -52 22 -116 54 -63 32
-124 58 -135 58 -27 0 -25 -40 3 -76 29 -38 44 -49 100 -78 l47 -24 -87 1
c-105 0 -158 -20 -146 -56 12 -39 79 -63 171 -62 29 0 53 -2 53 -5 0 -3 -25
-16 -55 -29 -31 -13 -67 -37 -81 -54 -22 -27 -23 -32 -11 -51 19 -27 38 -25
116 12 l64 30 -67 -60 c-83 -75 -101 -106 -80 -137 17 -23 44 -27 76 -10 11 6
18 7 15 2 -4 -5 -9 -23 -11 -40 -7 -37 22 -68 53 -58 25 7 74 59 113 116 29
43 36 41 18 -5 -7 -20 -21 -98 -22 -126 -2 -62 30 -112 58 -89 11 9 18 9 26 1
19 -19 46 -14 64 12 8 14 28 28 44 31 19 4 33 16 42 35 l13 30 15 -33 c11 -22
23 -33 42 -35 53 -6 69 76 33 166 l-15 37 21 -25 c11 -14 36 -44 55 -67 41
-50 74 -62 109 -39 21 14 23 20 15 42 -13 34 -14 34 20 21 59 -22 92 33 48 80
l-23 25 25 -7 c52 -17 90 0 90 41 0 34 -74 94 -117 94 -7 0 -13 3 -13 8 0 4
29 6 63 5 48 -1 72 3 95 18 50 30 40 69 -21 84 -23 6 -25 10 -15 22 16 20 19
45 8 63 -10 17 -95 23 -140 10 -43 -12 -29 4 17 19 89 30 149 94 117 126 -27
27 -56 21 -204 -43 -8 -3 -1 12 16 33 62 80 80 138 54 184 l-13 25 -19 -25
c-11 -13 -58 -80 -105 -149 -101 -147 -92 -135 -99 -127 -3 3 13 29 35 57 93
117 141 265 99 306 -31 31 -61 1 -103 -101 l-22 -56 1 71 c3 85 -18 132 -54
123 -12 -3 -26 -17 -31 -31 l-10 -26 -15 29 c-24 46 -43 55 -68 29z m124 -374
c0 -5 -4 -10 -10 -10 -5 0 -10 5 -10 10 0 6 5 10 10 10 6 0 10 -4 10 -10z
m130 -110 c-20 -13 -33 -13 -25 0 3 6 14 10 23 10 15 0 15 -2 2 -10z m-345
-100 c-3 -5 -12 -10 -18 -10 -7 0 -6 4 3 10 19 12 23 12 15 0z m235 -132 c0
-6 -6 -5 -15 2 -8 7 -15 14 -15 16 0 2 7 1 15 -2 8 -4 15 -11 15 -16z"/>
</g>
</svg>
