<?xml version="1.0" standalone="no"?>
<!DOCTYPE svg PUBLIC "-//W3C//DTD SVG 20010904//EN"
 "http://www.w3.org/TR/2001/REC-SVG-20010904/DTD/svg10.dtd">
<svg version="1.0" xmlns="http://www.w3.org/2000/svg"
 width="460.000000pt" height="460.000000pt" viewBox="0 0 460.000000 460.000000"
 preserveAspectRatio="xMidYMid meet">
<metadata>
Created by potrace 1.11, written by Peter Selinger 2001-2013
</metadata>
<g transform="translate(0.000000,460.000000) scale(0.100000,-0.100000)"
fill="#000000" stroke="none">
<path d="M1487 4399 c-58 -14 -111 -44 -145 -84 -59 -67 -74 -126 -73 -292 0
-62 -4 -115 -8 -118 -5 -2 -7 -37 -4 -77 2 -40 4 -171 3 -290 -1 -159 1 -218
10 -218 6 0 8 -5 4 -12 -5 -7 -8 -655 -7 -1441 1 -1314 3 -1433 19 -1482 20
-66 71 -128 128 -157 22 -11 44 -26 48 -31 5 -8 251 -11 830 -11 l823 0 61 32
c76 39 126 95 150 170 17 54 18 152 18 1912 0 1704 -2 1860 -17 1911 -22 72
-80 139 -149 170 l-53 24 -800 2 c-445 1 -817 -3 -838 -8z"/>
</g>
</svg>
