<?xml version="1.0" standalone="no"?>
<!DOCTYPE svg PUBLIC "-//W3C//DTD SVG 20010904//EN"
 "http://www.w3.org/TR/2001/REC-SVG-20010904/DTD/svg10.dtd">
<svg version="1.0" xmlns="http://www.w3.org/2000/svg"
 width="90.000000pt" height="90.000000pt" viewBox="0 0 90.000000 90.000000"
 preserveAspectRatio="xMidYMid meet">
<metadata>
Created by potrace 1.11, written by Peter Selinger 2001-2013
</metadata>
<g transform="translate(0.000000,90.000000) scale(0.100000,-0.100000)"
fill="#000000" stroke="none">
<path d="M427 870 c-23 -59 -51 -134 -53 -145 -1 -5 -18 -55 -38 -110 -20 -55
-51 -138 -68 -185 -36 -99 -56 -140 -66 -138 -17 3 -47 -18 -47 -34 0 -9 -15
-29 -34 -43 -19 -14 -30 -26 -23 -26 26 -3 31 -4 38 -11 4 -5 2 -8 -4 -8 -7 0
-10 -10 -8 -22 3 -13 5 -26 5 -30 1 -5 7 -8 15 -8 23 0 27 -29 5 -40 -26 -15
-16 -29 17 -22 18 3 30 0 36 -12 9 -16 12 -16 34 -1 19 12 39 15 87 10 34 -4
70 -7 79 -7 10 1 15 -5 12 -12 -3 -8 2 -16 11 -20 17 -6 48 5 46 17 -1 4 -1
10 -1 15 0 10 62 8 80 -3 8 -5 20 -10 25 -10 15 -2 36 16 30 25 -3 5 16 15 42
24 26 9 57 26 70 38 17 15 34 21 58 20 19 -2 35 2 35 8 0 5 -12 10 -27 11 -16
0 -22 3 -16 6 9 3 9 11 -3 29 -15 22 -15 24 0 24 18 0 17 18 -2 39 -10 10 -16
11 -24 3 -15 -15 -51 5 -44 23 3 8 -3 17 -14 20 -18 6 -43 66 -110 265 -49
147 -107 307 -118 326 -10 17 -12 16 -25 -16z"/>
<path d="M200 361 c0 -11 5 -23 10 -26 6 -4 10 5 10 19 0 14 -4 26 -10 26 -5
0 -10 -9 -10 -19z"/>
</g>
</svg>
