<?xml version="1.0" standalone="no"?>
<!DOCTYPE svg PUBLIC "-//W3C//DTD SVG 20010904//EN"
 "http://www.w3.org/TR/2001/REC-SVG-20010904/DTD/svg10.dtd">
<svg version="1.0" xmlns="http://www.w3.org/2000/svg"
 width="70.000000pt" height="70.000000pt" viewBox="0 0 70.000000 70.000000"
 preserveAspectRatio="xMidYMid meet">
<metadata>
Created by potrace 1.11, written by Peter Selinger 2001-2013
</metadata>
<g transform="translate(0.000000,70.000000) scale(0.100000,-0.100000)"
fill="#000000" stroke="none">
<path d="M80 598 c-24 -37 -28 -52 -19 -70 7 -12 3 -23 -15 -40 -36 -35 -40
-70 -12 -101 18 -19 30 -24 56 -21 19 2 37 9 41 16 5 8 15 8 38 -2 31 -13 67
-7 57 9 -3 5 1 11 9 15 11 4 13 11 5 30 -8 21 -7 24 7 19 10 -4 14 -2 10 4 -8
13 1 43 13 43 5 0 7 -11 4 -25 -2 -14 -6 -36 -8 -48 -8 -44 6 -50 114 -53 105
-2 107 -2 115 43 2 10 4 18 5 18 1 0 3 8 5 18 6 31 14 47 23 47 9 0 8 -19 -3
-74 -3 -16 -7 -34 -8 -40 -1 -6 9 -11 22 -11 21 0 27 7 37 48 7 26 12 51 11
55 0 4 7 9 17 10 15 3 17 0 10 -20 -18 -58 -8 -98 25 -98 29 0 41 20 26 44
-10 16 -10 27 -3 46 6 14 12 31 14 38 3 18 -35 41 -60 35 -11 -2 -25 -4 -31
-4 -114 11 -127 5 -129 -54 0 -19 -5 -35 -9 -35 -5 0 -6 -4 -3 -8 2 -4 -4 -13
-14 -20 -27 -16 -32 -1 -19 52 6 25 9 52 6 61 -4 8 0 21 8 29 19 19 19 35 0
42 -8 4 -13 9 -10 13 2 4 -2 8 -10 8 -8 0 -13 -2 -10 -5 2 -3 0 -13 -5 -23 -7
-11 -7 -20 0 -24 6 -4 4 -15 -6 -30 -9 -13 -18 -39 -21 -57 -3 -18 -9 -38 -14
-44 -5 -6 -5 -14 -1 -19 4 -4 -2 -5 -13 -3 -11 2 -19 10 -17 18 2 7 5 35 8 62
6 53 0 57 -51 38 -28 -11 -59 -69 -64 -122 -1 -4 -8 -5 -16 -2 -8 4 -12 10 -9
15 8 14 -19 11 -41 -5 -60 -41 -86 21 -33 78 10 11 14 22 9 25 -17 12 -22 48
-7 60 18 15 37 6 29 -14 -3 -11 2 -15 17 -15 18 0 21 4 16 23 -3 12 -6 28 -6
35 0 7 -14 12 -38 12 -27 0 -41 -6 -52 -22z"/>
<path d="M331 286 c-6 -7 -9 -24 -7 -37 3 -13 5 -29 5 -36 1 -17 41 -3 43 16
0 9 2 23 3 31 1 16 -13 40 -25 40 -4 0 -13 -6 -19 -14z"/>
<path d="M252 242 c-9 -6 -6 -14 13 -30 14 -12 25 -28 25 -34 0 -9 -3 -8 -10
2 -8 13 -10 13 -10 0 0 -10 -3 -11 -11 -3 -26 26 -108 -26 -89 -56 5 -9 15 -6
35 13 15 14 24 26 19 26 -5 0 -2 5 6 10 11 7 19 5 28 -7 6 -9 12 -12 12 -5 0
15 20 11 40 -7 20 -19 23 -58 5 -58 -8 0 -12 4 -9 8 2 4 0 10 -5 13 -5 3 -12
-1 -15 -10 -4 -9 -9 -14 -13 -11 -3 4 -12 2 -19 -3 -8 -8 -16 -6 -26 4 -10 9
-20 11 -29 5 -11 -7 -10 -9 4 -9 10 0 16 -4 12 -9 -3 -5 0 -13 6 -17 8 -5 9
-3 4 6 -6 10 -4 12 8 7 9 -3 19 -2 22 4 4 5 12 6 18 2 19 -12 41 -9 61 7 18
14 18 14 6 -10 -12 -23 -12 -24 3 -12 9 8 21 11 26 8 5 -4 12 -2 16 4 4 6 11
8 16 4 5 -3 20 0 32 8 24 15 47 18 47 6 0 -5 0 -11 0 -14 0 -4 -7 0 -17 7 -15
13 -15 12 -2 -9 12 -19 16 -20 25 -7 6 8 13 13 16 10 2 -3 5 2 5 10 0 8 -3 13
-6 11 -7 -5 -31 20 -26 26 2 2 -5 4 -15 4 -11 0 -20 -6 -20 -13 0 -6 -5 -15
-12 -19 -6 -4 -8 -3 -5 3 3 5 -4 9 -16 8 -12 -2 -21 -8 -19 -14 1 -7 -2 -9 -9
-5 -8 5 -9 3 -4 -6 5 -9 4 -11 -4 -6 -6 4 -8 13 -4 19 4 7 6 20 5 30 -2 10 3
17 13 17 9 0 13 5 9 11 -4 7 0 9 12 5 23 -7 52 8 35 18 -6 4 -11 2 -11 -4 0
-6 -10 -8 -24 -4 -15 3 -25 1 -29 -9 -3 -8 -15 -17 -26 -20 -20 -5 -27 7 -22
36 1 5 -3 6 -9 2 -6 -3 -7 -11 -4 -17 4 -7 2 -8 -4 -4 -7 4 -9 19 -6 35 5 23
2 32 -14 40 -24 13 -24 13 -40 3z"/>
<path d="M387 223 c-20 -16 -36 -32 -37 -37 0 -5 6 -4 13 1 6 6 20 9 29 8 20
-4 61 32 53 46 -9 14 -19 11 -58 -18z"/>
<path d="M133 224 c-3 -8 -8 -12 -12 -10 -4 3 -8 -4 -8 -15 -1 -10 2 -19 8
-19 5 0 8 -5 7 -12 -2 -7 7 -13 20 -14 12 -1 22 3 22 8 0 5 -8 7 -19 3 -15 -4
-18 0 -16 22 3 46 4 47 25 23 15 -17 23 -21 31 -13 15 15 4 30 -27 36 -16 3
-27 0 -31 -9z"/>
<path d="M540 232 c0 -6 -6 -9 -14 -6 -19 7 -31 -15 -17 -29 9 -9 14 -8 21 2
4 8 16 16 24 17 19 3 22 -42 4 -49 -7 -2 -11 -7 -8 -10 10 -11 29 9 32 32 2
15 -5 28 -19 38 -14 9 -23 11 -23 5z"/>
<path d="M482 151 c13 -15 38 -34 56 -40 17 -7 32 -18 32 -26 0 -14 24 -27 34
-18 10 10 7 23 -5 23 -5 0 -7 -5 -3 -12 4 -7 3 -8 -5 -4 -6 4 -9 12 -6 17 4 5
-6 14 -20 19 -16 6 -23 14 -19 22 5 7 3 8 -6 3 -10 -6 -12 -4 -7 7 6 16 -29
38 -59 38 -12 0 -10 -6 8 -29z"/>
<path d="M56 144 c-3 -8 -12 -14 -20 -14 -13 0 -14 -5 -5 -27 6 -16 10 -30 10
-33 -2 -11 23 -4 27 8 2 7 -2 11 -8 10 -7 -2 -14 5 -15 15 -3 13 1 16 16 12
24 -8 40 2 33 20 -8 20 -31 26 -38 9z"/>
<path d="M608 144 c-3 -3 -4 -14 -1 -24 4 -15 9 -17 23 -10 29 16 33 40 6 40
-12 0 -25 -3 -28 -6z"/>
<path d="M660 125 c-7 -8 -9 -15 -4 -15 4 0 -2 -9 -14 -20 -27 -25 -27 -25 -3
-27 21 -2 34 18 36 55 1 26 1 26 -15 7z m10 -29 c0 -2 -8 -10 -17 -17 -16 -13
-17 -12 -4 4 13 16 21 21 21 13z"/>
<path d="M131 116 c-6 -7 -8 -16 -4 -19 3 -4 1 -7 -4 -7 -6 0 -13 5 -15 12 -3
9 -6 9 -12 0 -4 -7 -2 -12 5 -12 8 0 6 -5 -5 -13 -16 -12 -16 -13 3 -13 11 0
18 2 16 4 -2 2 8 14 22 26 16 14 22 25 16 29 -6 4 -16 1 -22 -7z"/>
<path d="M220 115 c15 -18 60 -16 53 2 -3 7 -19 13 -35 13 -26 0 -29 -2 -18
-15z"/>
</g>
</svg>
