<?xml version="1.0" standalone="no"?>
<!DOCTYPE svg PUBLIC "-//W3C//DTD SVG 20010904//EN"
 "http://www.w3.org/TR/2001/REC-SVG-20010904/DTD/svg10.dtd">
<svg version="1.0" xmlns="http://www.w3.org/2000/svg"
 width="512.000000pt" height="512.000000pt" viewBox="0 0 512.000000 512.000000"
 preserveAspectRatio="xMidYMid meet">
<metadata>
Created by potrace 1.11, written by Peter Selinger 2001-2013
</metadata>
<g transform="translate(0.000000,512.000000) scale(0.100000,-0.100000)"
fill="#000000" stroke="none">
<path d="M1714 4996 l-28 -23 0 -171 c0 -152 2 -173 18 -191 23 -26 80 -37
111 -23 45 21 52 54 50 226 l-2 159 -27 24 c-36 31 -86 30 -122 -1z"/>
<path d="M3343 5004 c-17 -9 -33 -23 -35 -32 -3 -9 -4 -91 -4 -181 l2 -163 27
-24 c16 -13 40 -24 55 -24 35 0 92 35 93 57 7 133 2 312 -8 335 -23 49 -72 61
-130 32z"/>
<path d="M1187 4740 c-104 -33 -186 -114 -226 -223 l-21 -58 2 -2022 3 -2022
27 -57 c15 -32 47 -79 72 -106 25 -27 42 -53 38 -57 -4 -5 -2 -5 5 -1 7 4 36
-6 65 -21 l53 -28 904 -3 905 -3 608 608 608 608 0 1551 c0 1522 -1 1553 -20
1609 -39 113 -119 191 -231 226 -48 15 -91 19 -205 19 l-144 0 0 -72 c0 -49
-6 -86 -19 -114 -68 -151 -273 -190 -390 -75 -49 48 -71 104 -71 189 l0 72
-570 0 -570 0 0 -72 c0 -162 -108 -270 -254 -255 -136 14 -215 107 -216 255
l0 72 -147 -1 c-115 0 -161 -4 -206 -19z m2702 -496 c73 -21 150 -97 179 -177
l22 -58 0 -1244 0 -1244 -472 -3 -473 -3 -62 -29 c-101 -46 -179 -143 -203
-252 -7 -30 -11 -213 -10 -496 l0 -448 -807 0 c-763 0 -810 1 -848 19 -46 20
-81 51 -110 96 -20 30 -20 59 -22 1815 -3 2041 -12 1851 88 1952 41 41 69 61
105 71 42 13 219 16 1304 16 1120 1 1262 -1 1309 -15z m-114 -3129 c-140 -140
-370 -370 -510 -511 l-256 -255 3 438 3 438 30 45 c20 31 47 54 83 72 l54 27
424 1 425 0 -256 -255z"/>
<path d="M1393 3773 c-59 -11 -82 -100 -39 -150 31 -36 100 -38 128 -3 43 53
29 122 -28 146 -19 8 -35 13 -36 13 -2 -1 -13 -4 -25 -6z"/>
<path d="M1690 3742 c-17 -14 -23 -29 -23 -57 0 -28 6 -43 23 -57 22 -18 62
-18 1066 -16 1030 3 1043 3 1058 23 20 26 20 74 0 100 -15 20 -28 20 -1058 23
-1004 2 -1044 2 -1066 -16z"/>
<path d="M1383 3270 c-80 -32 -67 -157 19 -174 84 -17 144 92 82 149 -15 14
-30 25 -33 26 -3 0 -15 2 -26 4 -11 2 -30 -1 -42 -5z"/>
<path d="M1703 3245 c-11 -8 -24 -26 -27 -40 -7 -29 15 -79 40 -89 9 -3 479
-6 1045 -6 803 0 1034 3 1050 13 20 12 35 51 30 77 -1 8 -12 25 -24 38 l-20
22 -1037 0 c-897 0 -1038 -2 -1057 -15z"/>
<path d="M1394 2773 c-28 -5 -52 -33 -64 -71 -7 -25 -4 -38 13 -63 31 -45 67
-55 114 -32 70 34 67 130 -3 159 -19 8 -35 13 -36 13 -2 -1 -13 -4 -24 -6z"/>
<path d="M1695 2734 c-15 -16 -23 -35 -20 -48 2 -11 4 -24 4 -28 1 -5 10 -17
21 -28 20 -20 33 -20 1051 -20 1037 0 1059 1 1081 34 13 19 8 70 -8 91 -15 20
-28 20 -1060 23 l-1045 2 -24 -26z"/>
<path d="M1390 2272 c-8 -2 -25 -14 -37 -25 -50 -45 -15 -144 52 -151 120 -13
144 157 25 177 -14 2 -32 2 -40 -1z"/>
<path d="M1702 2242 c-35 -27 -38 -72 -8 -105 l25 -27 884 0 884 0 28 22 c24
18 27 26 22 60 -3 22 -14 46 -24 53 -15 12 -163 14 -903 14 -832 1 -886 -1
-908 -17z"/>
<path d="M1393 1773 c-58 -11 -82 -100 -40 -148 37 -43 100 -40 139 9 35 42
11 116 -43 135 -18 6 -32 10 -33 10 -1 -1 -11 -4 -23 -6z"/>
<path d="M1707 1748 c-29 -23 -39 -66 -22 -97 8 -16 22 -31 30 -35 9 -3 279
-6 599 -6 l583 0 20 23 c12 12 23 29 24 37 6 30 -11 67 -36 78 -38 18 -1175
17 -1198 0z"/>
<path d="M1358 1250 c-36 -36 -38 -87 -5 -125 52 -61 156 -20 157 61 0 32 -37
83 -62 85 -7 1 -24 3 -38 4 -15 2 -34 -7 -52 -25z"/>
<path d="M1712 1253 c-7 -3 -19 -18 -28 -35 -13 -25 -13 -35 -3 -59 6 -17 20
-34 29 -39 11 -6 180 -10 401 -10 381 -1 382 -1 405 21 15 14 24 34 24 53 -1
75 -4 76 -437 75 -208 0 -384 -3 -391 -6z"/>
</g>
</svg>
