<?xml version="1.0" standalone="no"?>
<!DOCTYPE svg PUBLIC "-//W3C//DTD SVG 20010904//EN"
 "http://www.w3.org/TR/2001/REC-SVG-20010904/DTD/svg10.dtd">
<svg version="1.0" xmlns="http://www.w3.org/2000/svg"
 width="400.000000pt" height="400.000000pt" viewBox="0 0 400.000000 400.000000"
 preserveAspectRatio="xMidYMid meet">
<metadata>
Created by potrace 1.11, written by Peter Selinger 2001-2013
</metadata>
<g transform="translate(0.000000,400.000000) scale(0.100000,-0.100000)"
fill="#000000" stroke="none">
<path d="M2625 3123 c-16 -2 -73 -16 -125 -29 -52 -14 -102 -27 -110 -29 -8
-1 -35 -8 -60 -15 -25 -7 -54 -13 -65 -15 -43 -6 -450 -111 -852 -221 -80 -22
-104 -24 -175 -18 -46 4 -93 6 -106 5 -19 -1 -287 -77 -549 -157 -83 -25 -133
-55 -133 -79 0 -13 -139 -61 -315 -110 -84 -24 -83 -22 -111 -150 -3 -11 -8
-38 -12 -60 -16 -92 2 -652 23 -685 3 -5 38 -19 78 -31 39 -13 74 -25 77 -28
5 -6 14 -7 63 -13 9 -1 17 -6 17 -10 0 -5 11 -6 25 -2 19 5 26 2 31 -12 18
-53 30 -73 47 -78 21 -5 79 13 73 23 -2 3 2 14 9 24 10 13 18 15 36 8 27 -10
33 -11 55 -11 11 0 14 -6 10 -17 -5 -16 -4 -16 6 -3 14 16 36 19 56 7 6 -5 12
-6 12 -4 0 2 21 0 48 -5 26 -5 61 -12 77 -14 17 -3 64 -11 105 -20 41 -8 86
-16 100 -19 14 -3 39 -8 55 -11 30 -7 59 -12 83 -13 7 -1 11 -4 9 -8 -3 -5 16
-8 42 -9 26 0 56 -4 67 -9 10 -4 27 -9 37 -10 9 -2 20 -4 25 -5 4 -1 15 -2 25
-1 9 1 17 -2 17 -7 0 -5 8 -9 18 -8 25 1 172 -27 172 -33 0 -4 23 -7 52 -9 28
-1 58 -8 67 -14 9 -7 13 -8 8 -3 -4 5 7 15 24 22 18 7 33 12 34 11 6 -11 35
-77 35 -83 0 -3 -5 -3 -12 1 -7 4 -8 3 -4 -5 4 -6 11 -9 16 -6 5 3 12 -1 17
-8 15 -24 85 -71 111 -75 14 -2 33 -7 43 -13 10 -5 20 -5 23 0 3 5 22 12 41
15 19 4 35 12 35 18 0 5 7 8 15 4 8 -3 14 -2 13 2 -5 16 26 81 33 70 4 -6 20
-13 36 -16 15 -2 33 -7 39 -13 6 -5 13 -7 15 -4 6 5 105 -11 189 -31 14 -3 39
-8 55 -10 17 -2 41 -6 55 -9 14 -3 43 -8 65 -11 22 -3 51 -7 65 -10 14 -2 47
-6 75 -9 27 -4 55 -11 62 -17 9 -7 13 -7 13 1 0 7 4 10 8 7 18 -11 62 -14 96
-6 22 5 36 4 36 -2 0 -5 6 -6 13 -1 6 4 19 8 27 10 50 7 98 14 115 16 11 1 23
6 27 11 4 6 13 4 23 -4 13 -11 15 -11 13 0 -5 20 110 44 131 28 14 -12 14 -11
2 5 -11 14 -11 17 0 18 8 0 21 2 29 4 8 2 27 7 42 10 15 3 38 9 50 13 13 5 32
8 43 8 11 -1 23 3 26 7 4 5 24 10 47 10 22 1 38 5 35 10 -2 4 4 8 14 9 24 2
35 4 53 10 8 3 62 19 119 35 126 34 139 47 153 154 19 147 27 504 11 534 -20
37 -105 309 -133 425 -16 63 -44 159 -63 212 l-33 96 35 7 c20 4 54 9 76 11
22 2 61 7 86 12 41 8 48 6 77 -17 19 -17 28 -31 23 -39 -10 -16 12 -181 28
-209 5 -10 12 -9 31 0 29 14 34 58 18 143 -5 27 -10 60 -12 74 -2 14 -4 31 -4
37 -3 22 -70 84 -99 92 -33 9 -128 7 -231 -3 l-72 -8 -16 39 c-48 121 -77 142
-274 204 -53 16 -105 31 -116 33 -10 3 -39 9 -64 16 -278 70 -387 87 -475 73z"/>
<path d="M794 1369 c-3 -6 -2 -15 3 -20 5 -5 9 -1 9 11 0 23 -2 24 -12 9z"/>
<path d="M1395 1161 c-3 -5 -2 -12 3 -15 5 -3 9 1 9 9 0 17 -3 19 -12 6z"/>
<path d="M1470 1159 c0 -5 5 -7 10 -4 6 3 10 8 10 11 0 2 -4 4 -10 4 -5 0 -10
-5 -10 -11z"/>
<path d="M3595 1129 c-4 -6 -5 -12 -2 -15 2 -3 7 2 10 11 7 17 1 20 -8 4z"/>
<path d="M2050 1119 c0 -5 5 -7 10 -4 6 3 10 8 10 11 0 2 -4 4 -10 4 -5 0 -10
-5 -10 -11z"/>
<path d="M2235 1049 c-4 -6 -5 -12 -2 -15 2 -3 7 2 10 11 7 17 1 20 -8 4z"/>
<path d="M2389 1043 c-13 -16 -12 -17 4 -4 16 13 21 21 13 21 -2 0 -10 -8 -17
-17z"/>
<path d="M2155 1040 c3 -5 8 -10 11 -10 2 0 4 5 4 10 0 6 -5 10 -11 10 -5 0
-7 -4 -4 -10z"/>
<path d="M3275 1040 c-3 -5 -1 -10 4 -10 6 0 11 5 11 10 0 6 -2 10 -4 10 -3 0
-8 -4 -11 -10z"/>
<path d="M2239 998 c-5 -18 -6 -38 -1 -34 7 8 12 36 6 36 -2 0 -4 -1 -5 -2z"/>
<path d="M2315 961 c-3 -5 -2 -12 3 -15 5 -3 9 1 9 9 0 17 -3 19 -12 6z"/>
<path d="M2706 922 c-3 -5 1 -9 9 -9 8 0 12 4 9 9 -3 4 -7 8 -9 8 -2 0 -6 -4
-9 -8z"/>
</g>
</svg>
